<?xml version="1.0" encoding="utf-8"?>
<!-- Generator: Adobe Illustrator 27.5.0, SVG Export Plug-In . SVG Version: 6.00 Build 0)  -->
<svg version="1.1" id="Layer_1" xmlns="http://www.w3.org/2000/svg" xmlns:xlink="http://www.w3.org/1999/xlink" width="96px" height="48px" x="0px" y="0px"
	 viewBox="0 0 100 50" style="enable-background:new 0 0 100 50;" xml:space="preserve">
<style type="text/css">
	.st0{fill:url(#SVGID_1_);}
	.st1{fill:#FFFFFF;}
</style>
<g>
	<g id="Logotypes">
		<g>
			
				<linearGradient id="SVGID_1_" gradientUnits="userSpaceOnUse" x1="99.9975" y1="-527.7114" x2="49.9875" y2="-577.7214" gradientTransform="matrix(0.9998 0 0 -0.9998 0.0225 -527.6058)">
				<stop  offset="3.435144e-03" style="stop-color:#E44857"/>
				<stop  offset="0.4689" style="stop-color:#C711E1"/>
				<stop  offset="1" style="stop-color:#7F52FF"/>
			</linearGradient>
			<polygon class="st0" points="100,50 50,50 50,0 100,0 75,25 			"/>
		</g>
	</g>
	<g>
		<g>
			<g>
				<g>
					<g>
						<g>
							<rect x="0" y="0" width="50" height="50"/>
						</g>
						<g>
							<path class="st1" d="M5.44,40.63l18.75,0l0,3.12l-18.75,0L5.44,40.63z"/>
							<path class="st1" d="M4.66,12.89l1.39-1.32C6.32,12,6.77,12.27,7.28,12.3c0.53,0,0.88-0.37,0.88-1.1l0-4.93l2.15,0l0,4.95
								c0.06,0.81-0.21,1.6-0.77,2.19c-0.57,0.56-1.34,0.86-2.14,0.83C6.32,14.29,5.28,13.78,4.66,12.89z"/>
							<path class="st1" d="M11.27,6.27l6.27,0l0,1.82l-4.17,0l0,1.19l3.74,0l0,1.67l-3.71,0l0,1.24l4.17,0l0,1.83l-6.33,0
								L11.27,6.27z"/>
							<path class="st1" d="M20.61,8.16l-2.33,0l0-1.89l6.84,0l0,1.89l-2.34,0l0,5.91l-2.17,0L20.61,8.16z"/>
							<path class="st1" d="M5.53,17.15l3.68,0c0.77-0.06,1.54,0.19,2.12,0.69c0.33,0.34,0.52,0.79,0.51,1.27
								c0.01,0.78-0.47,1.48-1.21,1.74c0.92,0.17,1.57,0.98,1.55,1.91c0,1.41-1.09,2.24-2.96,2.24l-3.7,0L5.53,17.15z M9.69,19.56
								c0-0.43-0.35-0.67-0.98-0.67l-1.07,0l0,1.37l1.04,0c0.65,0,1.03-0.22,1.03-0.67L9.69,19.56z M8.94,21.78l-1.31,0l0,1.44
								l1.35,0c0.67,0,1.03-0.26,1.03-0.72c-0.02-0.44-0.33-0.73-1.06-0.72H8.94z"/>
							<path class="st1" d="M12.88,17.15l3.46,0c0.92-0.08,1.84,0.23,2.54,0.83c0.47,0.48,0.72,1.14,0.69,1.82
								c0.03,1.06-0.61,2.03-1.61,2.41L19.83,25l-2.5,0l-1.58-2.37l-0.72,0l0,2.37l-2.17,0L12.88,17.15z M16.21,20.9
								c0.72,0,1.17-0.36,1.17-0.93c0-0.62-0.46-0.94-1.18-0.94l-1.16,0l0,1.89L16.21,20.9z"/>
							<path class="st1" d="M22.57,17.09l2.08,0l3.33,7.87l-2.32,0l-0.56-1.41l-3.02,0L21.53,25l-2.26,0L22.57,17.09z M24.47,21.87
								l-0.88-2.21l-0.88,2.21L24.47,21.87z"/>
							<path class="st1" d="M28.33,17.13l2.17,0l0,7.81l-2.17,0L28.33,17.13z"/>
							<path class="st1" d="M31.3,17.13l2.03,0l2.81,4.17l0-4.17l2.14,0l0,7.81l-1.89,0l-2.94-4.28l0,4.28l-2.15,0L31.3,17.13z"/>
							<path class="st1" d="M38.64,23.77l1.2-1.44c0.7,0.59,1.58,0.92,2.5,0.94c0.59,0,0.9-0.21,0.9-0.54
								c0-0.34-0.25-0.51-1.32-0.76c-1.67-0.38-2.94-0.83-2.94-2.44c0-1.45,1.15-2.5,3.02-2.5c1.16-0.04,2.3,0.33,3.21,1.04
								l-1.04,1.48c-0.63-0.48-1.39-0.74-2.18-0.77c-0.52,0-0.78,0.21-0.78,0.5c0,0.36,0.27,0.52,1.36,0.76
								c1.79,0.39,2.9,0.97,2.9,2.43c0,1.59-1.26,2.5-3.15,2.5C40.98,25.04,39.68,24.61,38.64,23.77z"/>
						</g>
					</g>
				</g>
			</g>
		</g>
	</g>
</g>
</svg>
